<?xml version="1.0" encoding="UTF-8"?>
<!DOCTYPE svg PUBLIC "-//W3C//DTD SVG 1.1//EN" "http://www.w3.org/Graphics/SVG/1.1/DTD/svg11.dtd">
<svg xmlns="http://www.w3.org/2000/svg" version="1.1" width="1024px" height="1024px" style="shape-rendering:geometricPrecision; text-rendering:geometricPrecision; image-rendering:optimizeQuality; fill-rule:evenodd; clip-rule:evenodd" xmlns:xlink="http://www.w3.org/1999/xlink">
<g><path style="opacity:1" fill="#01253b" d="M 544.5,81.5 C 550.69,81.1771 556.69,81.5104 562.5,82.5C 562.611,83.1174 562.944,83.6174 563.5,84C 572.987,84.4187 582.321,85.2521 591.5,86.5C 608.119,89.5438 624.452,93.5438 640.5,98.5C 642.475,100.09 644.808,101.257 647.5,102C 651.121,103.138 654.788,103.972 658.5,104.5C 711.66,123.412 759.327,151.578 801.5,189C 893.428,274.827 941.095,380.993 944.5,507.5C 942.175,651.303 885.509,768.137 774.5,858C 673.298,932.719 560.298,960.053 435.5,940C 320.1,917.512 228.1,859.012 159.5,764.5C 145.495,744.073 132.995,722.74 122,700.5C 120.657,696.12 119.49,691.786 118.5,687.5C 117.5,687.5 116.5,687.5 115.5,687.5C 113.503,676.848 109.836,666.848 104.5,657.5C 99.0317,640.861 94.365,624.194 90.5,607.5C 89.2336,596.738 87.4003,586.071 85,575.5C 83.2102,562.948 82.2102,550.281 82,537.5C 81.7679,536.263 81.2679,535.263 80.5,534.5C 80.5,534.167 80.5,533.833 80.5,533.5C 80.2279,517.472 80.5613,501.472 81.5,485.5C 81.3337,478.492 81.5004,471.492 82,464.5C 82.7172,463.956 83.2172,463.289 83.5,462.5C 84.4865,457.68 85.1532,452.68 85.5,447.5C 88.73,432.109 91.5634,416.442 94,400.5C 95.3974,399.774 96.2308,398.607 96.5,397C 98.6593,385.524 101.659,374.357 105.5,363.5C 106.5,363.5 107.5,363.5 108.5,363.5C 108.781,359.812 109.281,356.145 110,352.5C 128.569,306.408 154.069,264.741 186.5,227.5C 188.017,227.489 189.184,226.823 190,225.5C 191.75,223.266 193.25,220.932 194.5,218.5C 226.344,183.601 262.677,154.934 303.5,132.5C 308.482,129.885 313.815,128.218 319.5,127.5C 319.5,126.5 319.5,125.5 319.5,124.5C 322.077,124.545 324.077,123.545 325.5,121.5C 328.833,119.833 332.167,118.167 335.5,116.5C 337.527,116.662 339.527,116.495 341.5,116C 347.458,112.859 353.458,110.026 359.5,107.5C 367.059,105.229 374.392,102.562 381.5,99.5C 383.475,97.91 385.808,96.7433 388.5,96C 399.422,94.1414 410.088,91.9747 420.5,89.5C 428.165,86.6786 436.165,85.3453 444.5,85.5C 477.622,80.7294 510.955,79.3961 544.5,81.5 Z"/></g>
<g><path style="opacity:0.733" fill="#75808a" d="M 640.5,98.5 C 646.694,100.13 652.694,102.13 658.5,104.5C 654.788,103.972 651.121,103.138 647.5,102C 644.808,101.257 642.475,100.09 640.5,98.5 Z"/></g>
<g><path style="opacity:0.878" fill="#5e7584" d="M 381.5,99.5 C 374.392,102.562 367.059,105.229 359.5,107.5C 366.205,103.551 373.538,100.884 381.5,99.5 Z"/></g>
<g><path style="opacity:0.914" fill="#4b6573" d="M 359.5,107.5 C 353.458,110.026 347.458,112.859 341.5,116C 339.527,116.495 337.527,116.662 335.5,116.5C 343.154,112.906 351.154,109.906 359.5,107.5 Z"/></g>
<g><path style="opacity:1" fill="#445e6d" d="M 325.5,121.5 C 324.077,123.545 322.077,124.545 319.5,124.5C 319.5,125.5 319.5,126.5 319.5,127.5C 313.815,128.218 308.482,129.885 303.5,132.5C 310.218,127.807 317.552,124.141 325.5,121.5 Z"/></g>
<g><path style="opacity:1" fill="#f3f4f4" d="M 467.5,180.5 C 482.837,180.333 498.17,180.5 513.5,181C 534.851,186.379 543.018,199.879 538,221.5C 534.843,230.491 529.01,237.158 520.5,241.5C 526.865,251.368 533.032,261.368 539,271.5C 540.411,273.65 541.245,275.984 541.5,278.5C 535.132,278.83 528.798,278.496 522.5,277.5C 515.364,265.866 508.031,254.366 500.5,243C 495.177,242.501 489.844,242.334 484.5,242.5C 484.667,254.171 484.5,265.838 484,277.5C 478,278.833 472,278.833 466,277.5C 465.333,245.833 465.333,214.167 466,182.5C 466.717,181.956 467.217,181.289 467.5,180.5 Z"/></g>
<g><path style="opacity:1" fill="#f7f6f7" d="M 558.5,180.5 C 564.093,180.193 569.593,180.527 575,181.5C 575.667,213.5 575.667,245.5 575,277.5C 569.259,278.475 563.425,278.808 557.5,278.5C 557.174,245.76 557.508,213.093 558.5,180.5 Z"/></g>
<g><path style="opacity:1" fill="#f3f3f4" d="M 737.5,180.5 C 738.445,185.405 738.779,190.405 738.5,195.5C 738.389,196.117 738.056,196.617 737.5,197C 724.504,197.5 711.504,197.667 698.5,197.5C 698.5,205.5 698.5,213.5 698.5,221.5C 710.833,221.5 723.167,221.5 735.5,221.5C 736.833,226.833 736.833,232.167 735.5,237.5C 723.167,237.5 710.833,237.5 698.5,237.5C 698.5,245.833 698.5,254.167 698.5,262.5C 712.167,262.5 725.833,262.5 739.5,262.5C 740.81,267.667 740.81,272.834 739.5,278C 719.427,278.82 699.427,278.654 679.5,277.5C 679.333,245.498 679.5,213.498 680,181.5C 699.09,180.507 718.257,180.174 737.5,180.5 Z"/></g>
<g><path style="opacity:1" fill="#f5f5f6" d="M 306.5,180.5 C 306.5,181.167 306.833,181.5 307.5,181.5C 307.5,194.167 307.5,206.833 307.5,219.5C 321.833,219.5 336.167,219.5 350.5,219.5C 350.333,206.829 350.5,194.162 351,181.5C 356.741,180.525 362.575,180.192 368.5,180.5C 368.5,181.167 368.833,181.5 369.5,181.5C 369.667,213.502 369.5,245.502 369,277.5C 363.593,278.473 358.093,278.807 352.5,278.5C 351.833,278.167 351.167,277.833 350.5,277.5C 350.5,264.167 350.5,250.833 350.5,237.5C 336.167,237.5 321.833,237.5 307.5,237.5C 307.667,250.837 307.5,264.171 307,277.5C 301.259,278.475 295.425,278.808 289.5,278.5C 289.5,277.833 289.167,277.5 288.5,277.5C 288.333,245.498 288.5,213.498 289,181.5C 294.741,180.525 300.575,180.192 306.5,180.5 Z"/></g>
<g><path style="opacity:1" fill="#00020a" d="M 306.5,180.5 C 300.575,180.192 294.741,180.525 289,181.5C 288.5,213.498 288.333,245.498 288.5,277.5C 287.336,245.336 287.169,213.003 288,180.5C 294.266,179.174 300.432,179.174 306.5,180.5 Z"/></g>
<g><path style="opacity:0.337" fill="#f5f6f7" d="M 158.5,764.5 C 158.833,764.5 159.167,764.5 159.5,764.5C 228.1,859.012 320.1,917.512 435.5,940C 560.298,960.053 673.298,932.719 774.5,858C 885.509,768.137 942.175,651.303 944.5,507.5C 941.095,380.993 893.428,274.827 801.5,189C 759.327,151.578 711.66,123.412 658.5,104.5C 652.694,102.13 646.694,100.13 640.5,98.5C 624.452,93.5438 608.119,89.5438 591.5,86.5C 582.169,84.2851 572.502,82.9518 562.5,82.5C 556.69,81.5104 550.69,81.1771 544.5,81.5C 544.082,80.7784 543.416,80.2784 542.5,80C 509.805,78.3433 477.472,79.6766 445.5,84C 444.944,84.3826 444.611,84.8826 444.5,85.5C 436.165,85.3453 428.165,86.6786 420.5,89.5C 416.131,89.4672 411.798,89.8005 407.5,90.5C 407.611,89.8826 407.944,89.3826 408.5,89C 504.309,67.624 597.309,75.624 687.5,113C 823.973,176.802 908.139,282.302 940,429.5C 962.937,567.643 930.437,690.976 842.5,799.5C 748.956,903.232 632.289,953.398 492.5,950C 353.61,940.597 242.61,880.097 159.5,768.5C 158.571,767.311 158.238,765.978 158.5,764.5 Z"/></g>
<g><path style="opacity:0.749" fill="#6e7c89" d="M 562.5,82.5 C 572.502,82.9518 582.169,84.2851 591.5,86.5C 582.321,85.2521 572.987,84.4187 563.5,84C 562.944,83.6174 562.611,83.1174 562.5,82.5 Z"/></g>
<g><path style="opacity:0.749" fill="#6d7e89" d="M 544.5,81.5 C 510.955,79.3961 477.622,80.7294 444.5,85.5C 444.611,84.8826 444.944,84.3826 445.5,84C 477.472,79.6766 509.805,78.3433 542.5,80C 543.416,80.2784 544.082,80.7784 544.5,81.5 Z"/></g>
<g><path style="opacity:0.033" fill="#eaeced" d="M 420.5,89.5 C 410.088,91.9747 399.422,94.1414 388.5,96C 385.808,96.7433 383.475,97.91 381.5,99.5C 373.538,100.884 366.205,103.551 359.5,107.5C 351.154,109.906 343.154,112.906 335.5,116.5C 332.167,118.167 328.833,119.833 325.5,121.5C 317.552,124.141 310.218,127.807 303.5,132.5C 262.677,154.934 226.344,183.601 194.5,218.5C 191.139,220.895 188.472,223.895 186.5,227.5C 154.069,264.741 128.569,306.408 110,352.5C 109.281,356.145 108.781,359.812 108.5,363.5C 107.5,363.5 106.5,363.5 105.5,363.5C 101.659,374.357 98.6593,385.524 96.5,397C 96.2308,398.607 95.3974,399.774 94,400.5C 91.5634,416.442 88.73,432.109 85.5,447.5C 84.7784,447.918 84.2784,448.584 84,449.5C 83.501,453.821 83.3343,458.154 83.5,462.5C 83.2172,463.289 82.7172,463.956 82,464.5C 81.5004,471.492 81.3337,478.492 81.5,485.5C 80.7321,486.263 80.2321,487.263 80,488.5C 79.1723,503.672 79.3389,518.672 80.5,533.5C 80.5,533.833 80.5,534.167 80.5,534.5C 81.8831,556.98 84.3831,579.313 88,601.5C 89.0192,603.502 89.8525,605.502 90.5,607.5C 94.365,624.194 99.0317,640.861 104.5,657.5C 109.836,666.848 113.503,676.848 115.5,687.5C 116.5,687.5 117.5,687.5 118.5,687.5C 119.49,691.786 120.657,696.12 122,700.5C 132.995,722.74 145.495,744.073 159.5,764.5C 159.167,764.5 158.833,764.5 158.5,764.5C 157.265,764.279 156.265,763.612 155.5,762.5C 93.8019,670.52 68.9685,569.187 81,458.5C 95.3162,356.867 138.816,269.534 211.5,196.5C 234.21,176.286 258.21,157.786 283.5,141C 315.552,121.969 349.219,106.802 384.5,95.5C 392.091,93.3515 399.757,91.6848 407.5,90.5C 411.798,89.8005 416.131,89.4672 420.5,89.5 Z"/></g>
<g><path style="opacity:1" fill="#01253b" d="M 510.5,197.5 C 517.023,199.537 520.357,204.037 520.5,211C 520.757,218.9 517.09,223.733 509.5,225.5C 501.684,224.508 493.684,224.174 485.5,224.5C 485.5,215.833 485.5,207.167 485.5,198.5C 494.017,198.826 502.35,198.493 510.5,197.5 Z"/></g>
<g><path style="opacity:1" fill="#000005" d="M 368.5,180.5 C 362.575,180.192 356.741,180.525 351,181.5C 350.5,194.162 350.333,206.829 350.5,219.5C 336.167,219.5 321.833,219.5 307.5,219.5C 307.5,206.833 307.5,194.167 307.5,181.5C 308.495,193.655 308.829,205.989 308.5,218.5C 322.167,218.5 335.833,218.5 349.5,218.5C 349.333,205.829 349.5,193.162 350,180.5C 356.266,179.174 362.432,179.174 368.5,180.5 Z"/></g>
<g><path style="opacity:1" fill="#f5f5f6" d="M 380.5,206.5 C 387.422,206.188 394.256,206.521 401,207.5C 406.738,223.548 412.571,239.548 418.5,255.5C 424.694,239.587 430.694,223.587 436.5,207.5C 442.833,206.167 449.167,206.167 455.5,207.5C 443.167,239.5 430.833,271.5 418.5,303.5C 412.872,304.495 407.206,304.829 401.5,304.5C 403.761,296.051 406.427,287.718 409.5,279.5C 399.54,255.252 389.873,230.919 380.5,206.5 Z"/></g>
<g><path style="opacity:1" fill="#000005" d="M 510.5,197.5 C 502.35,198.493 494.017,198.826 485.5,198.5C 485.5,207.167 485.5,215.833 485.5,224.5C 493.684,224.174 501.684,224.508 509.5,225.5C 501.167,225.5 492.833,225.5 484.5,225.5C 484.5,216.167 484.5,206.833 484.5,197.5C 493.167,197.5 501.833,197.5 510.5,197.5 Z"/></g>
<g><path style="opacity:1" fill="#00010a" d="M 735.5,221.5 C 723.167,221.5 710.833,221.5 698.5,221.5C 698.5,213.5 698.5,205.5 698.5,197.5C 711.504,197.667 724.504,197.5 737.5,197C 738.056,196.617 738.389,196.117 738.5,195.5C 739.325,191.353 739.825,187.019 740,182.5C 740.667,187.167 740.667,191.833 740,196.5C 739.5,197 739,197.5 738.5,198C 725.504,198.5 712.504,198.667 699.5,198.5C 699.5,205.833 699.5,213.167 699.5,220.5C 711.678,220.172 723.678,220.505 735.5,221.5 Z"/></g>
<g><path style="opacity:0.843" fill="#607885" d="M 194.5,218.5 C 193.25,220.932 191.75,223.266 190,225.5C 189.184,226.823 188.017,227.489 186.5,227.5C 188.472,223.895 191.139,220.895 194.5,218.5 Z"/></g>
<g><path style="opacity:1" fill="#f4f5f5" d="M 616.5,179.5 C 623.841,179.334 631.174,179.5 638.5,180C 652.152,183.146 659.486,191.646 660.5,205.5C 654.858,206.628 649.191,207.628 643.5,208.5C 642.08,198.927 636.413,194.261 626.5,194.5C 615.297,194.863 610.463,200.53 612,211.5C 614.292,215.788 617.792,218.622 622.5,220C 633.306,221.95 643.64,225.283 653.5,230C 665.999,241.082 667.832,253.915 659,268.5C 650.784,277.797 640.451,281.797 628,280.5C 614.978,281.829 604.311,277.496 596,267.5C 593.511,263.689 592.011,259.522 591.5,255C 591.755,253.674 592.422,252.674 593.5,252C 598.518,250.995 603.518,250.328 608.5,250C 609.646,257.144 613.646,261.811 620.5,264C 625.833,264.667 631.167,264.667 636.5,264C 643.841,261.315 646.674,256.148 645,248.5C 643.878,246.376 642.378,244.543 640.5,243C 630.231,239.515 619.897,236.182 609.5,233C 594.936,225.338 590.103,213.504 595,197.5C 599.363,187.956 606.53,181.956 616.5,179.5 Z"/></g>
<g><path style="opacity:1" fill="#010007" d="M 737.5,180.5 C 718.257,180.174 699.09,180.507 680,181.5C 679.5,213.498 679.333,245.498 679.5,277.5C 678.336,245.336 678.169,213.003 679,180.5C 699.167,179.172 718.667,179.172 737.5,180.5 Z"/></g>
<g><path style="opacity:1" fill="#000107" d="M 350.5,277.5 C 349.501,265.247 349.168,252.247 349.5,238.5C 335.833,238.5 322.167,238.5 308.5,238.5C 308.667,251.837 308.5,265.171 308,278.5C 301.159,279.82 294.993,279.82 289.5,278.5C 295.425,278.808 301.259,278.475 307,277.5C 307.5,264.171 307.667,250.837 307.5,237.5C 321.833,237.5 336.167,237.5 350.5,237.5C 350.5,250.833 350.5,264.167 350.5,277.5 Z"/></g>
<g><path style="opacity:1" fill="#000108" d="M 369.5,181.5 C 370.664,213.664 370.831,245.997 370,278.5C 364.068,279.825 358.234,279.825 352.5,278.5C 358.093,278.807 363.593,278.473 369,277.5C 369.5,245.502 369.667,213.502 369.5,181.5 Z"/></g>
<g><path style="opacity:1" fill="#000006" d="M 735.5,237.5 C 723.678,238.495 711.678,238.828 699.5,238.5C 699.5,246.167 699.5,253.833 699.5,261.5C 713.58,261.168 726.913,261.501 739.5,262.5C 725.833,262.5 712.167,262.5 698.5,262.5C 698.5,254.167 698.5,245.833 698.5,237.5C 710.833,237.5 723.167,237.5 735.5,237.5 Z"/></g>
<g><path style="opacity:1" fill="#f0f1f2" d="M 183.5,343.5 C 182.514,347.97 182.181,352.637 182.5,357.5C 180.5,357.5 178.5,357.5 176.5,357.5C 176.5,345.833 176.5,334.167 176.5,322.5C 178.5,322.5 180.5,322.5 182.5,322.5C 182.5,327.5 182.5,332.5 182.5,337.5C 187.833,337.5 193.167,337.5 198.5,337.5C 198.5,332.5 198.5,327.5 198.5,322.5C 200.833,322.5 203.167,322.5 205.5,322.5C 205.667,334.171 205.5,345.838 205,357.5C 202.959,358.423 200.792,358.756 198.5,358.5C 198.5,353.5 198.5,348.5 198.5,343.5C 193.5,343.5 188.5,343.5 183.5,343.5 Z"/></g>
<g><path style="opacity:1" fill="#f0f3f3" d="M 360.5,320.5 C 361.29,321.401 362.29,322.068 363.5,322.5C 363.836,327 361.836,328.833 357.5,328C 354.672,324.141 355.672,321.641 360.5,320.5 Z"/></g>
<g><path style="opacity:1" fill="#eeefef" d="M 784.5,320.5 C 789.262,321.092 790.596,323.592 788.5,328C 782.202,328.495 780.868,325.995 784.5,320.5 Z"/></g>
<g><path style="opacity:1" fill="#f5f6f6" d="M 274.5,322.5 C 281.589,322.116 288.589,322.616 295.5,324C 300.833,330 300.833,336 295.5,342C 294.5,342.333 293.5,342.667 292.5,343C 295.375,347.917 298.375,352.751 301.5,357.5C 299.235,358.647 296.902,358.814 294.5,358C 291.707,353.582 289.041,349.082 286.5,344.5C 284.604,343.534 282.604,343.201 280.5,343.5C 280.5,348.5 280.5,353.5 280.5,358.5C 278.5,358.5 276.5,358.5 274.5,358.5C 274.5,346.5 274.5,334.5 274.5,322.5 Z"/></g>
<g><path style="opacity:1" fill="#072033" d="M 280.5,327.5 C 284.584,327.043 288.417,327.71 292,329.5C 294.209,333.207 293.376,336.04 289.5,338C 286.518,338.498 283.518,338.665 280.5,338.5C 280.5,334.833 280.5,331.167 280.5,327.5 Z"/></g>
<g><path style="opacity:1" fill="#e1e4e5" d="M 788.5,357.5 C 786.833,357.5 785.167,357.5 783.5,357.5C 783.5,349.167 783.5,340.833 783.5,332.5C 785.223,331.193 787.057,331.193 789,332.5C 789.823,341.01 789.657,349.344 788.5,357.5 Z"/></g>
<g><path style="opacity:1" fill="#f5f5f6" d="M 311.5,331.5 C 322.146,330.813 327.146,335.813 326.5,346.5C 320.794,346.171 315.128,346.505 309.5,347.5C 312.555,354.543 316.721,355.209 322,349.5C 323.085,350.293 324.252,350.96 325.5,351.5C 326.521,352.002 326.688,352.668 326,353.5C 320.497,359.101 314.331,359.934 307.5,356C 302.471,348.941 302.305,341.774 307,334.5C 308.652,333.601 310.152,332.601 311.5,331.5 Z"/></g>
<g><path style="opacity:1" fill="#f3f4f4" d="M 347.5,332.5 C 349.312,334.461 350.312,336.794 350.5,339.5C 348.801,339.66 347.134,339.494 345.5,339C 342.634,335.736 339.967,335.736 337.5,339C 337.645,339.772 337.978,340.439 338.5,341C 343.403,341.849 347.57,344.016 351,347.5C 352.027,351.18 351.194,354.347 348.5,357C 344.289,358.534 339.956,358.867 335.5,358C 333.638,356.634 331.972,355.134 330.5,353.5C 330.5,352.5 330.5,351.5 330.5,350.5C 333.91,348.695 336.576,349.528 338.5,353C 340.769,353.758 342.936,353.591 345,352.5C 345.684,351.216 345.517,350.049 344.5,349C 339.77,348.287 335.603,346.453 332,343.5C 330.276,338.269 331.776,334.435 336.5,332C 340.221,331.322 343.888,331.489 347.5,332.5 Z"/></g>
<g><path style="opacity:1" fill="#f4f5f5" d="M 742.5,331.5 C 745.85,331.335 749.183,331.502 752.5,332C 753.931,332.465 755.097,333.299 756,334.5C 757.435,342.389 757.935,350.389 757.5,358.5C 755.833,358.5 754.167,358.5 752.5,358.5C 752.649,357.448 752.483,356.448 752,355.5C 748.319,358.36 744.152,359.193 739.5,358C 734.257,353.255 734.257,348.588 739.5,344C 743.73,342.71 748.064,342.21 752.5,342.5C 752.496,337.011 749.829,335.178 744.5,337C 742.331,339.203 739.665,340.036 736.5,339.5C 737.345,335.985 739.345,333.319 742.5,331.5 Z"/></g>
<g><path style="opacity:1" fill="#f1f3f3" d="M 802.5,331.5 C 816.328,331.181 821.495,337.848 818,351.5C 814.345,358.07 808.845,360.237 801.5,358C 794.15,353.283 791.983,346.783 795,338.5C 796.767,335.228 799.267,332.895 802.5,331.5 Z"/></g>
<g><path style="opacity:1" fill="#f5f5f5" d="M 213.5,322.5 C 215.5,322.5 217.5,322.5 219.5,322.5C 219.5,334.5 219.5,346.5 219.5,358.5C 217.5,358.5 215.5,358.5 213.5,358.5C 213.5,346.5 213.5,334.5 213.5,322.5 Z"/></g>
<g><path style="opacity:1" fill="#0d1c2c" d="M 312.5,336.5 C 317.451,335.629 320.118,337.629 320.5,342.5C 316.774,342.823 313.107,342.489 309.5,341.5C 310.26,339.64 311.26,337.973 312.5,336.5 Z"/></g>
<g><path style="opacity:1" fill="#eeeff1" d="M 724.5,358.5 C 721.297,358.318 719.464,356.652 719,353.5C 718.501,348.177 718.334,342.844 718.5,337.5C 717.167,337.5 715.833,337.5 714.5,337.5C 714.5,335.5 714.5,333.5 714.5,331.5C 715.833,331.5 717.167,331.5 718.5,331.5C 717.953,327.71 719.62,325.71 723.5,325.5C 724.466,327.396 724.799,329.396 724.5,331.5C 726.833,331.5 729.167,331.5 731.5,331.5C 731.5,333.5 731.5,335.5 731.5,337.5C 729.167,337.5 726.833,337.5 724.5,337.5C 724.334,342.179 724.501,346.845 725,351.5C 727.173,353.64 729.673,353.974 732.5,352.5C 732.739,354.467 732.406,356.301 731.5,358C 729.19,358.497 726.857,358.663 724.5,358.5 Z"/></g>
<g><path style="opacity:1" fill="#788c97" d="M 783.5,332.5 C 783.5,340.833 783.5,349.167 783.5,357.5C 785.167,357.5 786.833,357.5 788.5,357.5C 786.735,358.461 784.735,358.795 782.5,358.5C 782.174,349.651 782.507,340.984 783.5,332.5 Z"/></g>
<g><path style="opacity:1" fill="#eff0f2" d="M 542.5,322.5 C 542.5,334.5 542.5,346.5 542.5,358.5C 540.167,358.5 537.833,358.5 535.5,358.5C 535.5,346.5 535.5,334.5 535.5,322.5C 537.833,322.5 540.167,322.5 542.5,322.5 Z"/></g>
<g><path style="opacity:1" fill="#f5f6f6" d="M 515.5,353.5 C 513.287,357.273 509.954,358.94 505.5,358.5C 499.196,358.699 495.363,355.699 494,349.5C 492.38,342.924 493.88,337.257 498.5,332.5C 510.612,329.277 516.612,333.943 516.5,346.5C 510.833,346.5 505.167,346.5 499.5,346.5C 499.854,352.356 502.854,354.523 508.5,353C 509.667,351.833 510.833,350.667 512,349.5C 513.419,350.46 514.919,351.293 516.5,352C 515.944,352.383 515.611,352.883 515.5,353.5 Z"/></g>
<g><path style="opacity:1" fill="#0a1522" d="M 502.5,336.5 C 507.206,335.881 509.873,337.881 510.5,342.5C 506.774,342.823 503.107,342.489 499.5,341.5C 500.26,339.64 501.26,337.973 502.5,336.5 Z"/></g>
<g><path style="opacity:1" fill="#082235" d="M 804.5,336.5 C 807.961,336.146 810.461,337.479 812,340.5C 812.956,344.572 812.456,348.405 810.5,352C 806.454,354.364 803.287,353.53 801,349.5C 800.333,346.5 800.333,343.5 801,340.5C 801.69,338.65 802.856,337.316 804.5,336.5 Z"/></g>
<g><path style="opacity:1" fill="#f6f6f6" d="M 824.5,331.5 C 826.5,331.5 828.5,331.5 830.5,331.5C 830.343,332.873 830.51,334.207 831,335.5C 833.513,331.788 837.013,330.622 841.5,332C 843.815,333.109 845.315,334.943 846,337.5C 846.5,344.492 846.666,351.492 846.5,358.5C 844.5,358.5 842.5,358.5 840.5,358.5C 840.666,352.158 840.5,345.825 840,339.5C 836.195,336.461 833.195,337.128 831,341.5C 830.501,347.157 830.334,352.824 830.5,358.5C 828.5,358.5 826.5,358.5 824.5,358.5C 824.5,349.5 824.5,340.5 824.5,331.5 Z"/></g>
<g><path style="opacity:1" fill="#101d2e" d="M 745.5,346.5 C 747.833,346.5 750.167,346.5 752.5,346.5C 753.305,351.525 751.139,353.858 746,353.5C 743.729,353.826 742.229,352.992 741.5,351C 742.344,348.993 743.677,347.493 745.5,346.5 Z"/></g>
<g><path style="opacity:1" fill="#042236" d="M 549.5,331.5 C 549.5,340.5 549.5,349.5 549.5,358.5C 551.5,358.5 553.5,358.5 555.5,358.5C 555.334,352.824 555.501,347.157 556,341.5C 558.195,337.128 561.195,336.461 565,339.5C 565.5,345.825 565.666,352.158 565.5,358.5C 568.082,358.975 570.082,358.308 571.5,356.5C 572.117,356.611 572.617,356.944 573,357.5C 573.333,351.5 573.667,345.5 574,339.5C 575.147,340.458 576.147,340.125 577,338.5C 576.882,343.933 577.715,348.933 579.5,353.5C 580.176,357.348 582.509,359.015 586.5,358.5C 591.171,359.146 593.171,357.146 592.5,352.5C 590.248,353.333 588.081,353.333 586,352.5C 585.501,347.511 585.334,342.511 585.5,337.5C 587.5,337.5 589.5,337.5 591.5,337.5C 591.5,335.5 591.5,333.5 591.5,331.5C 589.5,331.5 587.5,331.5 585.5,331.5C 585.5,329.5 585.5,327.5 585.5,325.5C 586.451,326.919 586.784,328.585 586.5,330.5C 588.527,330.662 590.527,330.495 592.5,330C 592.955,326.258 594.288,325.758 596.5,328.5C 595.001,329.904 595.334,330.57 597.5,330.5C 600.398,330.589 603.398,330.255 606.5,329.5C 608.568,329.967 610.568,330.634 612.5,331.5C 615.947,327.45 619.947,326.617 624.5,329C 624.167,329.333 623.833,329.667 623.5,330C 625.708,330.191 627.708,330.691 629.5,331.5C 632.054,330.394 634.721,329.561 637.5,329C 636.833,328.667 636.167,328.333 635.5,328C 637.101,327.727 638.601,327.227 640,326.5C 641.779,327.479 643.445,327.146 645,325.5C 645.333,325.833 645.667,326.167 646,326.5C 649.207,323.85 649.707,324.016 647.5,327C 648.738,326.923 649.738,327.089 650.5,327.5C 649.975,328.192 649.308,328.692 648.5,329C 662.964,329.222 668.63,335.722 665.5,348.5C 666.59,342.387 664.923,337.221 660.5,333C 655.962,330.697 651.795,331.197 648,334.5C 647.517,333.552 647.351,332.552 647.5,331.5C 645.5,331.5 643.5,331.5 641.5,331.5C 641.5,343.5 641.5,355.5 641.5,367.5C 643.5,367.5 645.5,367.5 647.5,367.5C 647.334,363.486 647.501,359.486 648,355.5C 653.209,359.644 658.209,359.311 663,354.5C 663.791,353.255 664.291,351.922 664.5,350.5C 665.161,351.718 665.828,353.051 666.5,354.5C 667.251,353.624 667.751,352.624 668,351.5C 668.667,353.167 668.667,354.833 668,356.5C 667.086,355.346 666.253,355.513 665.5,357C 666.5,357.5 667.5,358 668.5,358.5C 669.332,349.852 669.832,341.186 670,332.5C 670.171,341.01 670.671,349.343 671.5,357.5C 673.265,358.461 675.265,358.795 677.5,358.5C 677.334,352.491 677.501,346.491 678,340.5C 679.805,337.961 682.305,336.961 685.5,337.5C 685.357,335.738 685.691,334.071 686.5,332.5C 682.475,330.701 679.308,331.701 677,335.5C 676.51,334.207 676.343,332.873 676.5,331.5C 674.833,331.5 673.167,331.5 671.5,331.5C 673.129,330.662 675.462,329.828 678.5,329C 678.167,328.667 677.833,328.333 677.5,328C 678.973,327.29 679.64,326.124 679.5,324.5C 681.144,324.286 682.644,324.62 684,325.5C 684.333,324.833 684.667,324.167 685,323.5C 685.667,324.833 686.333,324.833 687,323.5C 686.249,326.641 686.416,329.807 687.5,333C 687.458,334.967 686.958,336.801 686,338.5C 683.371,338.928 681.038,339.928 679,341.5C 678.502,344.817 678.335,348.15 678.5,351.5C 680.5,351.5 682.5,351.5 684.5,351.5C 684.413,348.402 684.913,348.068 686,350.5C 686.167,350 686.333,349.5 686.5,349C 684.936,347.395 684.436,345.562 685,343.5C 687.114,340.907 688.947,338.24 690.5,335.5C 687.093,343.358 688.093,350.525 693.5,357C 700.773,360.119 706.773,358.619 711.5,352.5C 710.086,351.376 708.586,350.376 707,349.5C 701.62,355.353 697.453,354.687 694.5,347.5C 700.128,346.505 705.794,346.171 711.5,346.5C 712.116,335.782 707.116,330.782 696.5,331.5C 702.706,328.928 708.039,330.928 712.5,337.5C 713.169,335.369 713.835,333.369 714.5,331.5C 714.5,333.5 714.5,335.5 714.5,337.5C 715.833,337.5 717.167,337.5 718.5,337.5C 718.334,342.844 718.501,348.177 719,353.5C 719.464,356.652 721.297,358.318 724.5,358.5C 725.952,359.302 727.618,359.802 729.5,360C 726.62,360.684 723.787,360.517 721,359.5C 720.955,360.923 719.789,361.923 717.5,362.5C 716.231,360.82 714.564,359.653 712.5,359C 714.167,358.667 715.833,358.333 717.5,358C 717.002,356.842 716.169,356.009 715,355.5C 710.454,356.85 705.954,359.017 701.5,362C 700.216,362.684 699.049,362.517 698,361.5C 696.151,363.047 694.651,364.881 693.5,367C 695.5,367.333 697.5,367.667 699.5,368C 698.833,368.333 698.167,368.667 697.5,369C 698.849,369.772 699.682,370.939 700,372.5C 700.333,371.5 700.667,370.5 701,369.5C 701.788,371.165 702.122,372.831 702,374.5C 701.333,373.167 700.667,373.167 700,374.5C 698.258,371.057 696.425,371.224 694.5,375C 695.99,377.709 697.49,377.875 699,375.5C 699.54,377.135 699.04,378.468 697.5,379.5C 698.936,381.036 699.769,382.703 700,384.5C 701.113,383.24 701.28,382.073 700.5,381C 701.635,380.251 702.635,380.417 703.5,381.5C 703.447,383.665 703.114,385.831 702.5,388C 702.354,390.188 703.354,391.521 705.5,392C 703.888,392.72 702.388,392.554 701,391.5C 700.56,393.076 699.727,394.41 698.5,395.5C 699.653,396.687 699.653,397.687 698.5,398.5C 693.044,391.453 686.877,390.786 680,396.5C 674.277,405.791 675.777,413.624 684.5,420C 687.482,420.498 690.482,420.665 693.5,420.5C 693.141,421.626 691.808,422.292 689.5,422.5C 686.493,421.077 683.659,421.41 681,423.5C 676.001,422.561 675.501,420.727 679.5,418C 677.415,416.257 675.748,414.257 674.5,412C 675.972,408.067 675.805,404.233 674,400.5C 673.667,406.833 673.333,413.167 673,419.5C 672.828,412.987 672.328,406.653 671.5,400.5C 669.669,393.854 665.336,391.687 658.5,394C 656.443,397.3 655.443,397.133 655.5,393.5C 653.5,393.5 651.5,393.5 649.5,393.5C 649.5,402.167 649.5,410.833 649.5,419.5C 648.651,412.916 648.151,405.583 648,397.5C 647.667,397.167 647.333,396.833 647,396.5C 646.667,397.833 646.333,399.167 646,400.5C 644.837,398.715 644.17,396.715 644,394.5C 643.829,403.01 643.329,411.343 642.5,419.5C 642.5,410.833 642.5,402.167 642.5,393.5C 640.5,393.5 638.5,393.5 636.5,393.5C 636.5,402.167 636.5,410.833 636.5,419.5C 638.292,420.309 640.292,420.809 642.5,421C 640.1,421.186 637.766,421.686 635.5,422.5C 636.562,423.77 637.562,424.937 638.5,426C 637.256,428.303 635.589,428.803 633.5,427.5C 631.73,428.82 631.397,430.32 632.5,432C 630.37,435.266 628.704,434.933 627.5,431C 625.619,431.096 623.953,430.929 622.5,430.5C 625.845,429.32 628.011,426.987 629,423.5C 629.5,413.506 629.666,403.506 629.5,393.5C 626.921,393.083 624.754,393.75 623,395.5C 618.706,391.683 614.206,391.516 609.5,395C 605.716,399.861 604.549,405.361 606,411.5C 609.775,419.922 615.442,421.588 623,416.5C 624.5,423.667 621.667,426.5 614.5,425C 613.119,423.375 611.452,422.208 609.5,421.5C 606.09,422.582 605.59,424.582 608,427.5C 609.488,429.16 611.321,430.16 613.5,430.5C 615.969,431.317 618.635,431.817 621.5,432C 620,432.167 618.5,432.333 617,432.5C 612.587,431.391 608.42,430.391 604.5,429.5C 606.476,426.35 605.642,423.683 602,421.5C 601.798,423.256 601.298,424.922 600.5,426.5C 599.904,425.284 599.737,423.951 600,422.5C 599.667,422.833 599.333,423.167 599,423.5C 597.902,422.033 596.402,421.199 594.5,421C 596.708,420.809 598.708,420.309 600.5,419.5C 600.666,412.492 600.5,405.492 600,398.5C 598.924,395.921 597.091,394.254 594.5,393.5C 593.048,392.698 591.382,392.198 589.5,392C 592.003,391.871 594.003,390.871 595.5,389C 594.5,388.167 593.5,387.333 592.5,386.5C 593.167,386.167 593.833,385.833 594.5,385.5C 593.335,384.416 592.002,383.583 590.5,383C 591.167,382 591.833,381 592.5,380C 591.167,378.667 591.167,377.333 592.5,376C 590.873,376.43 589.373,376.596 588,376.5C 586.421,374.542 586.588,372.542 588.5,370.5C 587.902,369.205 587.402,367.872 587,366.5C 585.612,367.554 584.112,367.72 582.5,367C 584.623,365.806 586.957,365.14 589.5,365C 587.464,364.546 585.63,363.713 584,362.5C 582.838,363.187 581.672,363.353 580.5,363C 580.509,361.149 579.676,359.315 578,357.5C 575.518,359.675 572.685,361.342 569.5,362.5C 569.167,361.833 568.833,361.167 568.5,360.5C 567.319,362.135 567.319,363.802 568.5,365.5C 566.364,366.852 566.03,368.518 567.5,370.5C 566.91,371.799 565.91,372.632 564.5,373C 566.394,374.101 567.061,375.434 566.5,377C 568.208,378.062 568.874,379.229 568.5,380.5C 570.481,379.895 570.815,378.895 569.5,377.5C 570.154,375.885 570.654,374.218 571,372.5C 571.317,374.301 571.984,374.634 573,373.5C 575.471,377.064 574.638,379.564 570.5,381C 573.778,383.288 574.278,386.121 572,389.5C 567.263,390.469 562.43,390.803 557.5,390.5C 557.5,393.167 557.5,395.833 557.5,398.5C 561.702,398.183 565.702,398.517 569.5,399.5C 564.833,399.5 560.167,399.5 555.5,399.5C 555.5,395.833 555.5,392.167 555.5,388.5C 560.833,388.5 566.167,388.5 571.5,388.5C 571.5,386.833 571.5,385.167 571.5,383.5C 564.167,383.5 556.833,383.5 549.5,383.5C 549.5,395.5 549.5,407.5 549.5,419.5C 556.655,420.329 563.989,420.829 571.5,421C 563.833,421.333 556.167,421.667 548.5,422C 548.957,422.414 549.291,422.914 549.5,423.5C 545.445,426.529 544.779,426.029 547.5,422C 546.333,420.833 545.167,419.667 544,418.5C 543.16,421.464 542.16,421.797 541,419.5C 539.194,421.952 537.694,421.619 536.5,418.5C 536.634,414.324 536.968,410.157 537.5,406C 534.665,404.56 534.165,402.727 536,400.5C 538.122,401.22 538.622,402.387 537.5,404C 538.931,404.465 540.097,405.299 541,406.5C 542.495,404.89 542.661,403.224 541.5,401.5C 542.355,400.707 543.189,401.04 544,402.5C 544.333,400.833 544.667,399.167 545,397.5C 546.375,399.937 546.875,402.603 546.5,405.5C 538.532,408.477 538.532,411.644 546.5,415C 545.304,415.654 545.304,416.154 546.5,416.5C 547.499,405.186 547.832,393.853 547.5,382.5C 544.728,380.566 542.895,381.233 542,384.5C 540.319,382.769 539.153,380.936 538.5,379C 542.272,378.389 542.272,377.389 538.5,376C 538.957,375.586 539.291,375.086 539.5,374.5C 534.284,372.297 534.284,371.131 539.5,371C 538.542,369.853 538.875,368.853 540.5,368C 539.724,366.23 539.89,364.397 541,362.5C 541.423,363.956 542.256,364.456 543.5,364C 544.38,362.644 544.714,361.144 544.5,359.5C 541.287,359.81 538.287,359.477 535.5,358.5C 537.833,358.5 540.167,358.5 542.5,358.5C 542.5,346.5 542.5,334.5 542.5,322.5C 543.343,333.423 543.843,345.09 544,357.5C 544.333,356.5 544.667,355.5 545,354.5C 545.318,356.061 546.151,357.228 547.5,358C 545.068,359.087 545.402,359.587 548.5,359.5C 548.173,349.985 548.506,340.652 549.5,331.5 Z"/></g>
<g><path style="opacity:1" fill="#f5f6f6" d="M 696.5,331.5 C 707.116,330.782 712.116,335.782 711.5,346.5C 705.794,346.171 700.128,346.505 694.5,347.5C 697.453,354.687 701.62,355.353 707,349.5C 708.586,350.376 710.086,351.376 711.5,352.5C 706.773,358.619 700.773,360.119 693.5,357C 688.093,350.525 687.093,343.358 690.5,335.5C 692.537,334.154 694.537,332.82 696.5,331.5 Z"/></g>
<g><path style="opacity:1" fill="#f5f6f7" d="M 629.5,331.5 C 629.343,332.873 629.51,334.207 630,335.5C 631.677,331.949 634.51,330.616 638.5,331.5C 638.167,333.5 637.833,335.5 637.5,337.5C 633.818,336.725 631.318,338.059 630,341.5C 629.501,347.157 629.334,352.824 629.5,358.5C 627.5,358.5 625.5,358.5 623.5,358.5C 623.5,349.5 623.5,340.5 623.5,331.5C 625.5,331.5 627.5,331.5 629.5,331.5 Z"/></g>
<g><path style="opacity:1" fill="#f4f5f6" d="M 665.5,348.5 C 664.662,348.842 664.328,349.508 664.5,350.5C 664.291,351.922 663.791,353.255 663,354.5C 658.209,359.311 653.209,359.644 648,355.5C 647.501,359.486 647.334,363.486 647.5,367.5C 645.5,367.5 643.5,367.5 641.5,367.5C 641.5,355.5 641.5,343.5 641.5,331.5C 643.5,331.5 645.5,331.5 647.5,331.5C 647.351,332.552 647.517,333.552 648,334.5C 651.795,331.197 655.962,330.697 660.5,333C 664.923,337.221 666.59,342.387 665.5,348.5 Z"/></g>
<g><path style="opacity:1" fill="#082335" d="M 650.5,337.5 C 657.745,336.963 660.578,340.296 659,347.5C 656.367,354.579 652.7,355.246 648,349.5C 646.888,345.019 647.721,341.019 650.5,337.5 Z"/></g>
<g><path style="opacity:1" fill="#f3f4f5" d="M 602.5,331.5 C 613.646,330.313 618.98,335.313 618.5,346.5C 612.833,346.5 607.167,346.5 601.5,346.5C 601.644,351.813 604.31,353.979 609.5,353C 611.303,352.363 612.636,351.197 613.5,349.5C 615.497,349.986 616.831,351.153 617.5,353C 615.246,356.746 611.913,358.579 607.5,358.5C 603.042,358.854 599.542,357.188 597,353.5C 595.508,348.589 595.174,343.589 596,338.5C 597.694,335.642 599.861,333.309 602.5,331.5 Z"/></g>
<g><path style="opacity:1" fill="#0d1725" d="M 604.5,336.5 C 608.703,335.702 611.37,337.369 612.5,341.5C 608.893,342.489 605.226,342.823 601.5,342.5C 601.461,339.911 602.461,337.911 604.5,336.5 Z"/></g>
<g><path style="opacity:1" fill="#0b1926" d="M 697.5,336.5 C 702.206,335.881 704.873,337.881 705.5,342.5C 701.774,342.823 698.107,342.489 694.5,341.5C 695.26,339.64 696.26,337.973 697.5,336.5 Z"/></g>
<g><path style="opacity:1" fill="#eff0f1" d="M 671.5,331.5 C 673.167,331.5 674.833,331.5 676.5,331.5C 676.343,332.873 676.51,334.207 677,335.5C 679.308,331.701 682.475,330.701 686.5,332.5C 685.691,334.071 685.357,335.738 685.5,337.5C 682.305,336.961 679.805,337.961 678,340.5C 677.501,346.491 677.334,352.491 677.5,358.5C 675.265,358.795 673.265,358.461 671.5,357.5C 671.5,348.833 671.5,340.167 671.5,331.5 Z"/></g>
<g><path style="opacity:1" fill="#f1f3f3" d="M 549.5,331.5 C 551.5,331.5 553.5,331.5 555.5,331.5C 555.21,335.554 555.877,336.054 557.5,333C 562.038,330.697 566.205,331.197 570,334.5C 571.429,341.719 571.929,349.053 571.5,356.5C 570.082,358.308 568.082,358.975 565.5,358.5C 565.666,352.158 565.5,345.825 565,339.5C 561.195,336.461 558.195,337.128 556,341.5C 555.501,347.157 555.334,352.824 555.5,358.5C 553.5,358.5 551.5,358.5 549.5,358.5C 549.5,349.5 549.5,340.5 549.5,331.5 Z"/></g>
<g><path style="opacity:1" fill="#758694" d="M 183.5,343.5 C 183.5,348.5 183.5,353.5 183.5,358.5C 180.941,358.802 178.607,358.468 176.5,357.5C 178.5,357.5 180.5,357.5 182.5,357.5C 182.181,352.637 182.514,347.97 183.5,343.5 Z"/></g>
<g><path style="opacity:1" fill="#f2f3f4" d="M 224.5,323.5 C 226.693,322.203 229.027,322.203 231.5,323.5C 234.568,332.538 237.735,341.538 241,350.5C 244,341.5 247,332.5 250,323.5C 252.401,322.398 254.901,322.231 257.5,323C 253.142,334.407 248.975,345.907 245,357.5C 242.281,358.444 239.448,358.777 236.5,358.5C 232.875,346.621 228.875,334.955 224.5,323.5 Z"/></g>
<g><path style="opacity:1" fill="#042236" d="M 360.5,320.5 C 355.672,321.641 354.672,324.141 357.5,328C 361.836,328.833 363.836,327 363.5,322.5C 364.886,324.938 364.553,327.271 362.5,329.5C 363.951,330.906 365.284,332.406 366.5,334C 366,334.5 365.5,335 365,335.5C 364.333,339.167 364.333,342.833 365,346.5C 365.92,343.899 366.587,341.232 367,338.5C 367.278,339.416 367.778,340.082 368.5,340.5C 368.393,342.903 369.393,344.736 371.5,346C 374.833,347 378.167,348 381.5,349C 383.166,352.131 382.166,353.631 378.5,353.5C 375.707,353.054 373.373,351.721 371.5,349.5C 370.264,350.246 368.93,350.579 367.5,350.5C 368.026,353.707 369.692,356.207 372.5,358C 376.167,358.667 379.833,358.667 383.5,358C 388.246,355.367 389.579,351.534 387.5,346.5C 387.81,345.262 388.31,345.262 389,346.5C 389.333,349.833 389.667,353.167 390,356.5C 389.965,352.755 390.965,352.088 393,354.5C 393.499,349.177 393.666,343.844 393.5,338.5C 392.209,338.737 391.209,338.404 390.5,337.5C 391.833,337.5 393.167,337.5 394.5,337.5C 394.179,343.026 394.512,348.36 395.5,353.5C 396.176,357.348 398.509,359.015 402.5,358.5C 407.171,359.146 409.171,357.146 408.5,352.5C 406.248,353.333 404.081,353.333 402,352.5C 401.501,347.511 401.334,342.511 401.5,337.5C 403.735,337.795 405.735,337.461 407.5,336.5C 408.29,335.391 408.79,334.058 409,332.5C 409.422,335.236 409.422,337.902 409,340.5C 410.874,342.86 412.374,342.527 413.5,339.5C 416.045,339.849 418.045,339.016 419.5,337C 424.829,335.178 427.496,337.011 427.5,342.5C 422.551,341.959 417.884,342.792 413.5,345C 409.129,355.258 412.462,359.591 423.5,358C 424.931,357.535 426.097,356.701 427,355.5C 427.483,356.448 427.649,357.448 427.5,358.5C 429.5,358.5 431.5,358.5 433.5,358.5C 433.5,351.167 433.5,343.833 433.5,336.5C 433.703,334.61 433.037,333.11 431.5,332C 432.893,330.829 433.727,329.329 434,327.5C 434.875,329.513 436.209,329.513 438,327.5C 438.456,328.744 437.956,329.577 436.5,330C 439.695,330.181 442.695,330.681 445.5,331.5C 449.463,330.56 453.463,330.393 457.5,331C 460.953,332.728 462.786,335.562 463,339.5C 463.333,345.5 463.667,351.5 464,357.5C 466.525,353.658 467.025,349.491 465.5,345C 465.3,342.134 465.967,339.634 467.5,337.5C 465.602,343.929 466.435,349.929 470,355.5C 478.646,360.79 485.48,359.123 490.5,350.5C 487.133,347.36 484.466,347.86 482.5,352C 475.898,353.901 472.565,351.401 472.5,344.5C 475.178,335.33 479.678,334.33 486,341.5C 487.635,341.122 489.135,340.456 490.5,339.5C 489.196,336.533 487.196,334.199 484.5,332.5C 484.56,331.957 484.893,331.624 485.5,331.5C 487.309,333.488 489.476,334.822 492,335.5C 495.154,335.508 495.321,334.842 492.5,333.5C 492.709,332.914 493.043,332.414 493.5,332C 495.197,331.616 496.863,331.782 498.5,332.5C 493.88,337.257 492.38,342.924 494,349.5C 495.363,355.699 499.196,358.699 505.5,358.5C 509.954,358.94 513.287,357.273 515.5,353.5C 516.043,353.56 516.376,353.893 516.5,354.5C 512.643,359.071 507.643,361.238 501.5,361C 500.809,362.067 500.309,363.234 500,364.5C 500.165,361.926 499.165,359.592 497,357.5C 495.667,358.833 494.333,358.833 493,357.5C 491.667,358.167 490.667,359.167 490,360.5C 489.5,360 489,359.5 488.5,359C 491.218,353.461 490.551,353.127 486.5,358C 484.608,358.973 482.608,359.64 480.5,360C 482.754,361.054 483.087,362.554 481.5,364.5C 481.846,365.696 482.346,365.696 483,364.5C 483.667,365.167 483.667,365.833 483,366.5C 480.059,367.059 477.225,367.893 474.5,369C 476.256,369.202 477.922,369.702 479.5,370.5C 478.726,371.711 477.893,371.711 477,370.5C 476.409,371.483 476.743,372.15 478,372.5C 480.976,373.52 483.643,373.52 486,372.5C 486.75,373.126 487.584,373.626 488.5,374C 486.776,374.448 486.109,375.282 486.5,376.5C 483.971,375.04 481.304,374.54 478.5,375C 479.576,376.726 479.743,378.559 479,380.5C 478.346,379.304 477.846,379.304 477.5,380.5C 478.774,382.812 480.774,384.145 483.5,384.5C 485.696,382.253 487.03,382.92 487.5,386.5C 489.655,386.372 491.655,386.872 493.5,388C 492.289,389.113 492.289,390.28 493.5,391.5C 495.971,392.803 497.971,394.637 499.5,397C 500.617,404.463 500.784,411.963 500,419.5C 499.828,412.987 499.328,406.653 498.5,400.5C 496.994,393.954 492.994,391.787 486.5,394C 485.069,394.465 483.903,395.299 483,396.5C 482.517,395.552 482.351,394.552 482.5,393.5C 480.5,393.5 478.5,393.5 476.5,393.5C 476.5,402.167 476.5,410.833 476.5,419.5C 475.596,418.791 475.263,417.791 475.5,416.5C 473.012,416.683 471.012,417.683 469.5,419.5C 469.5,410.833 469.5,402.167 469.5,393.5C 467.5,393.5 465.5,393.5 463.5,393.5C 463.5,402.167 463.5,410.833 463.5,419.5C 462.603,418.319 462.103,416.319 462,413.5C 460.956,414.623 460.29,415.956 460,417.5C 458.853,416.542 457.853,416.875 457,418.5C 455.853,417.542 454.853,417.875 454,419.5C 453.014,418.829 451.847,418.829 450.5,419.5C 450.334,413.491 450.501,407.491 451,401.5C 453.135,399.722 455.635,399.055 458.5,399.5C 458.357,397.738 458.691,396.071 459.5,394.5C 455.779,392.814 452.613,393.481 450,396.5C 449.517,395.552 449.351,394.552 449.5,393.5C 447.833,393.5 446.167,393.5 444.5,393.5C 444.5,402.167 444.5,410.833 444.5,419.5C 446.292,420.309 448.292,420.809 450.5,421C 447.905,421.226 445.405,421.726 443,422.5C 441.984,421.366 441.317,421.699 441,423.5C 438.345,421.3 438.012,418.3 440,414.5C 440.667,416.5 441.333,418.5 442,420.5C 442.667,413.5 442.667,406.5 442,399.5C 441.32,404.345 440.153,408.345 438.5,411.5C 440.126,397.624 434.126,391.791 420.5,394C 414.03,398.126 411.863,403.959 414,411.5C 417.459,419.972 423.626,422.639 432.5,419.5C 432.938,419.435 433.272,419.601 433.5,420C 423.407,424.195 416.24,421.362 412,411.5C 411.316,412.784 411.483,413.951 412.5,415C 410.266,416.75 407.932,418.25 405.5,419.5C 407.53,417.463 409.196,415.13 410.5,412.5C 408.892,411.682 407.225,411.015 405.5,410.5C 403.171,414.252 399.837,415.418 395.5,414C 391.22,408.685 391.553,403.685 396.5,399C 400.674,397.982 403.674,399.482 405.5,403.5C 407.225,402.985 408.892,402.318 410.5,401.5C 407.31,393.877 401.644,391.377 393.5,394C 388.708,396.748 386.374,400.915 386.5,406.5C 386.703,409.197 387.036,411.864 387.5,414.5C 386.178,414.67 385.011,414.337 384,413.5C 382.885,415.908 381.218,417.908 379,419.5C 378.601,419.272 378.435,418.938 378.5,418.5C 384.834,410.668 383.5,404.501 374.5,400C 371.44,399.152 368.44,398.152 365.5,397C 362.833,394.333 362.833,391.667 365.5,389C 370.805,387.568 374.305,389.401 376,394.5C 380.804,394.408 382.137,392.408 380,388.5C 372.401,380.611 364.734,380.611 357,388.5C 355.058,394.89 356.891,399.723 362.5,403C 366.243,404.136 369.91,405.47 373.5,407C 376.34,412.041 374.674,414.541 368.5,414.5C 364.299,414.629 361.965,412.629 361.5,408.5C 355.741,407.833 354.074,410.166 356.5,415.5C 355.069,414.097 353.902,412.431 353,410.5C 352.517,411.448 352.351,412.448 352.5,413.5C 350.165,412.587 347.999,411.253 346,409.5C 345.506,407.866 345.34,406.199 345.5,404.5C 343.311,404.207 341.311,403.707 339.5,403C 339.043,403.414 338.709,403.914 338.5,404.5C 339.5,405.333 340.5,406.167 341.5,407C 340.551,407.617 339.718,407.451 339,406.5C 336.887,408.271 337.053,409.771 339.5,411C 339,411.5 338.5,412 338,412.5C 333.43,409.52 332.597,410.187 335.5,414.5C 333.978,413.809 332.978,412.642 332.5,411C 334.034,408.101 335.701,405.267 337.5,402.5C 335.5,401.167 333.5,401.167 331.5,402.5C 330.5,403.833 329.5,405.167 328.5,406.5C 326.308,405.141 324.641,403.308 323.5,401C 329.989,397.865 331.823,393.032 329,386.5C 324.833,382.554 319.999,381.554 314.5,383.5C 314.918,382.778 315.584,382.278 316.5,382C 320.285,381.785 323.952,381.619 327.5,381.5C 328.154,379.885 328.654,378.218 329,376.5C 331.173,379.277 331.673,379.11 330.5,376C 331.893,374.829 332.727,373.329 333,371.5C 333.957,373.709 335.124,373.543 336.5,371C 335.289,370.107 335.289,369.274 336.5,368.5C 337.187,370.555 338.354,372.221 340,373.5C 340.301,370.493 340.135,367.493 339.5,364.5C 337.488,365.014 335.488,365.18 333.5,365C 332.542,363.853 332.875,362.853 334.5,362C 332.833,361.667 331.167,361.333 329.5,361C 330.075,358.859 330.408,356.359 330.5,353.5C 331.972,355.134 333.638,356.634 335.5,358C 339.956,358.867 344.289,358.534 348.5,357C 351.194,354.347 352.027,351.18 351,347.5C 347.57,344.016 343.403,341.849 338.5,341C 337.978,340.439 337.645,339.772 337.5,339C 339.967,335.736 342.634,335.736 345.5,339C 347.134,339.494 348.801,339.66 350.5,339.5C 350.312,336.794 349.312,334.461 347.5,332.5C 348.802,331.643 350.135,331.143 351.5,331C 351.167,331.333 350.833,331.667 350.5,332C 354.451,347.473 356.451,347.306 356.5,331.5C 356.141,329.515 355.308,328.849 354,329.5C 349.832,328.664 349.665,327.664 353.5,326.5C 354.809,323.348 354.476,320.348 352.5,317.5C 354.074,316.369 355.741,316.202 357.5,317C 356.833,317.333 356.167,317.667 355.5,318C 357.175,318.985 358.842,319.819 360.5,320.5 Z"/></g>
<g><path style="opacity:1" fill="#8596a1" d="M 395.5,327.5 C 395.5,329.167 395.5,330.833 395.5,332.5C 394.167,332.5 392.833,332.5 391.5,332.5C 391.5,333.833 391.5,335.167 391.5,336.5C 392.833,336.5 394.167,336.5 395.5,336.5C 395.5,342.167 395.5,347.833 395.5,353.5C 394.512,348.36 394.179,343.026 394.5,337.5C 393.167,337.5 391.833,337.5 390.5,337.5C 390.5,335.5 390.5,333.5 390.5,331.5C 391.833,331.5 393.167,331.5 394.5,331.5C 394.232,329.901 394.566,328.568 395.5,327.5 Z"/></g>
<g><path style="opacity:1" fill="#f2f4f4" d="M 445.5,331.5 C 445.21,335.554 445.877,336.054 447.5,333C 452.038,330.697 456.205,331.197 460,334.5C 461.435,342.389 461.935,350.389 461.5,358.5C 459.5,358.5 457.5,358.5 455.5,358.5C 455.666,352.158 455.5,345.825 455,339.5C 451.195,336.461 448.195,337.128 446,341.5C 445.501,347.157 445.334,352.824 445.5,358.5C 443.5,358.5 441.5,358.5 439.5,358.5C 439.5,349.5 439.5,340.5 439.5,331.5C 441.5,331.5 443.5,331.5 445.5,331.5 Z"/></g>
<g><path style="opacity:1" fill="#f3f4f5" d="M 433.5,336.5 C 433.5,343.833 433.5,351.167 433.5,358.5C 431.5,358.5 429.5,358.5 427.5,358.5C 427.649,357.448 427.483,356.448 427,355.5C 426.097,356.701 424.931,357.535 423.5,358C 412.462,359.591 409.129,355.258 413.5,345C 417.884,342.792 422.551,341.959 427.5,342.5C 427.496,337.011 424.829,335.178 419.5,337C 418.045,339.016 416.045,339.849 413.5,339.5C 412.231,335.871 413.564,333.371 417.5,332C 423.885,330.316 429.219,331.816 433.5,336.5 Z"/></g>
<g><path style="opacity:1" fill="#091e30" d="M 420.5,346.5 C 422.833,346.5 425.167,346.5 427.5,346.5C 427.82,352.997 424.82,355.164 418.5,353C 416.933,350.094 417.6,347.928 420.5,346.5 Z"/></g>
<g><path style="opacity:1" fill="#f5f5f7" d="M 356.5,331.5 C 358.5,331.5 360.5,331.5 362.5,331.5C 362.5,340.5 362.5,349.5 362.5,358.5C 360.5,358.5 358.5,358.5 356.5,358.5C 356.5,349.5 356.5,340.5 356.5,331.5 Z"/></g>
<g><path style="opacity:1" fill="#edeeef" d="M 585.5,325.5 C 585.5,327.5 585.5,329.5 585.5,331.5C 587.5,331.5 589.5,331.5 591.5,331.5C 591.5,333.5 591.5,335.5 591.5,337.5C 589.5,337.5 587.5,337.5 585.5,337.5C 585.334,342.511 585.501,347.511 586,352.5C 588.081,353.333 590.248,353.333 592.5,352.5C 593.171,357.146 591.171,359.146 586.5,358.5C 582.509,359.015 580.176,357.348 579.5,353.5C 579.5,348.167 579.5,342.833 579.5,337.5C 578.167,337.5 576.833,337.5 575.5,337.5C 575.5,335.5 575.5,333.5 575.5,331.5C 576.5,331.5 577.5,331.5 578.5,331.5C 578.872,327.45 581.205,325.45 585.5,325.5 Z"/></g>
<g><path style="opacity:1" fill="#eef0f1" d="M 769.5,325.5 C 771.308,326.918 771.975,328.918 771.5,331.5C 773.833,331.5 776.167,331.5 778.5,331.5C 778.5,333.5 778.5,335.5 778.5,337.5C 776.167,337.5 773.833,337.5 771.5,337.5C 771.334,342.511 771.501,347.511 772,352.5C 774.081,353.333 776.248,353.333 778.5,352.5C 778.421,353.93 778.754,355.264 779.5,356.5C 778.975,357.192 778.308,357.692 777.5,358C 773.091,359.262 769.257,358.428 766,355.5C 765.501,349.509 765.334,343.509 765.5,337.5C 764.167,337.5 762.833,337.5 761.5,337.5C 761.5,335.5 761.5,333.5 761.5,331.5C 762.833,331.5 764.167,331.5 765.5,331.5C 765.238,330.022 765.571,328.689 766.5,327.5C 767.739,327.058 768.739,326.391 769.5,325.5 Z"/></g>
<g><path style="opacity:1" fill="#f4f5f5" d="M 484.5,332.5 C 487.196,334.199 489.196,336.533 490.5,339.5C 489.135,340.456 487.635,341.122 486,341.5C 479.678,334.33 475.178,335.33 472.5,344.5C 472.565,351.401 475.898,353.901 482.5,352C 484.466,347.86 487.133,347.36 490.5,350.5C 485.48,359.123 478.646,360.79 470,355.5C 466.435,349.929 465.602,343.929 467.5,337.5C 471.948,331.744 477.615,330.078 484.5,332.5 Z"/></g>
<g><path style="opacity:1" fill="#f2f4f4" d="M 387.5,346.5 C 389.579,351.534 388.246,355.367 383.5,358C 379.833,358.667 376.167,358.667 372.5,358C 369.692,356.207 368.026,353.707 367.5,350.5C 368.93,350.579 370.264,350.246 371.5,349.5C 373.373,351.721 375.707,353.054 378.5,353.5C 382.166,353.631 383.166,352.131 381.5,349C 378.167,348 374.833,347 371.5,346C 369.393,344.736 368.393,342.903 368.5,340.5C 368.52,334.316 371.686,331.316 378,331.5C 383.792,331.129 386.958,333.796 387.5,339.5C 385.801,339.66 384.134,339.494 382.5,339C 379.634,335.736 376.967,335.736 374.5,339C 374.645,339.772 374.978,340.439 375.5,341C 379.968,341.981 383.968,343.815 387.5,346.5 Z"/></g>
<g><path style="opacity:1" fill="#f2f3f3" d="M 407.5,336.5 C 405.735,337.461 403.735,337.795 401.5,337.5C 401.334,342.511 401.501,347.511 402,352.5C 404.081,353.333 406.248,353.333 408.5,352.5C 409.171,357.146 407.171,359.146 402.5,358.5C 398.509,359.015 396.176,357.348 395.5,353.5C 395.5,347.833 395.5,342.167 395.5,336.5C 394.167,336.5 392.833,336.5 391.5,336.5C 391.5,335.167 391.5,333.833 391.5,332.5C 392.833,332.5 394.167,332.5 395.5,332.5C 395.5,330.833 395.5,329.167 395.5,327.5C 400.377,323.97 402.377,325.304 401.5,331.5C 403.5,331.5 405.5,331.5 407.5,331.5C 407.5,333.167 407.5,334.833 407.5,336.5 Z"/></g>
<g><path style="opacity:1" fill="#eceeef" d="M 464.5,382.5 C 470.488,382.664 471.821,385.164 468.5,390C 462.812,389.79 461.479,387.29 464.5,382.5 Z"/></g>
<g><path style="opacity:1" fill="#e7e9eb" d="M 637.5,382.5 C 643.488,382.664 644.821,385.164 641.5,390C 635.403,390.147 634.07,387.647 637.5,382.5 Z"/></g>
<g><path style="opacity:1" fill="#f9f9f9" d="M 569.5,399.5 C 569.5,401.167 569.5,402.833 569.5,404.5C 564.833,404.5 560.167,404.5 555.5,404.5C 555.5,407.833 555.5,411.167 555.5,414.5C 560.833,414.5 566.167,414.5 571.5,414.5C 571.5,416.167 571.5,417.833 571.5,419.5C 564.167,419.5 556.833,419.5 549.5,419.5C 549.5,407.5 549.5,395.5 549.5,383.5C 556.833,383.5 564.167,383.5 571.5,383.5C 571.5,385.167 571.5,386.833 571.5,388.5C 566.167,388.5 560.833,388.5 555.5,388.5C 555.5,392.167 555.5,395.833 555.5,399.5C 560.167,399.5 564.833,399.5 569.5,399.5 Z"/></g>
<g><path style="opacity:1" fill="#f4f4f5" d="M 510.5,393.5 C 513.518,393.335 516.518,393.502 519.5,394C 520.667,394.5 521.5,395.333 522,396.5C 522.483,395.552 522.649,394.552 522.5,393.5C 524.5,393.5 526.5,393.5 528.5,393.5C 528.666,403.506 528.5,413.506 528,423.5C 527.214,426.583 525.381,428.749 522.5,430C 518.5,430.667 514.5,430.667 510.5,430C 506.201,428.138 505.201,425.471 507.5,422C 508.793,421.51 510.127,421.343 511.5,421.5C 511.36,423.124 512.027,424.29 513.5,425C 520.333,426.167 523.167,423.333 522,416.5C 517.435,420.26 512.601,420.427 507.5,417C 504.695,411.845 503.862,406.345 505,400.5C 505.967,397.379 507.8,395.046 510.5,393.5 Z"/></g>
<g><path style="opacity:1" fill="#fafafa" d="M 469.5,419.5 C 467.5,419.5 465.5,419.5 463.5,419.5C 463.5,410.833 463.5,402.167 463.5,393.5C 465.5,393.5 467.5,393.5 469.5,393.5C 469.5,402.167 469.5,410.833 469.5,419.5 Z"/></g>
<g><path style="opacity:1" fill="#f3f4f5" d="M 335.5,414.5 C 335.859,416.371 336.859,417.871 338.5,419C 333.915,420.518 330.415,419.351 328,415.5C 323.86,420.211 318.694,421.711 312.5,420C 306.911,417.549 305.078,413.383 307,407.5C 309.006,404.328 311.506,401.662 314.5,399.5C 309.262,394.055 309.262,388.721 314.5,383.5C 319.999,381.554 324.833,382.554 329,386.5C 331.823,393.032 329.989,397.865 323.5,401C 324.641,403.308 326.308,405.141 328.5,406.5C 329.5,405.167 330.5,403.833 331.5,402.5C 333.5,401.167 335.5,401.167 337.5,402.5C 335.701,405.267 334.034,408.101 332.5,411C 332.978,412.642 333.978,413.809 335.5,414.5 Z"/></g>
<g><path style="opacity:1" fill="#0b1e30" d="M 318.5,387.5 C 323.494,387.329 325.328,389.662 324,394.5C 320.035,398.47 317.535,397.47 316.5,391.5C 316.752,389.927 317.418,388.594 318.5,387.5 Z"/></g>
<g><path style="opacity:1" fill="#f3f4f5" d="M 671.5,400.5 C 671.5,406.833 671.5,413.167 671.5,419.5C 669.5,419.5 667.5,419.5 665.5,419.5C 665.666,413.491 665.499,407.491 665,401.5C 661.737,397.451 658.737,397.784 656,402.5C 655.501,408.157 655.334,413.824 655.5,419.5C 653.5,419.5 651.5,419.5 649.5,419.5C 649.5,410.833 649.5,402.167 649.5,393.5C 651.5,393.5 653.5,393.5 655.5,393.5C 655.443,397.133 656.443,397.3 658.5,394C 665.336,391.687 669.669,393.854 671.5,400.5 Z"/></g>
<g><path style="opacity:1" fill="#f1f3f3" d="M 642.5,419.5 C 640.5,419.5 638.5,419.5 636.5,419.5C 636.5,410.833 636.5,402.167 636.5,393.5C 638.5,393.5 640.5,393.5 642.5,393.5C 642.5,402.167 642.5,410.833 642.5,419.5 Z"/></g>
<g><path style="opacity:1" fill="#f3f4f4" d="M 405.5,419.5 C 398.177,422.004 392.177,420.337 387.5,414.5C 387.036,411.864 386.703,409.197 386.5,406.5C 386.374,400.915 388.708,396.748 393.5,394C 401.644,391.377 407.31,393.877 410.5,401.5C 408.892,402.318 407.225,402.985 405.5,403.5C 403.674,399.482 400.674,397.982 396.5,399C 391.553,403.685 391.22,408.685 395.5,414C 399.837,415.418 403.171,414.252 405.5,410.5C 407.225,411.015 408.892,411.682 410.5,412.5C 409.196,415.13 407.53,417.463 405.5,419.5 Z"/></g>
<g><path style="opacity:1" fill="#082335" d="M 513.5,398.5 C 521.098,398.334 523.931,402.001 522,409.5C 518.763,415.734 515.096,416.067 511,410.5C 509.888,406.019 510.721,402.019 513.5,398.5 Z"/></g>
<g><path style="opacity:1" fill="#f1f3f3" d="M 698.5,398.5 C 700.023,401.63 700.689,404.963 700.5,408.5C 694.833,408.5 689.167,408.5 683.5,408.5C 685.33,416.504 689.164,417.504 695,411.5C 696.586,412.376 698.086,413.376 699.5,414.5C 698.326,417.403 696.326,419.403 693.5,420.5C 690.482,420.665 687.482,420.498 684.5,420C 675.777,413.624 674.277,405.791 680,396.5C 686.877,390.786 693.044,391.453 698.5,398.5 Z"/></g>
<g><path style="opacity:1" fill="#0f1d2b" d="M 685.5,398.5 C 690.093,397.418 693.093,399.085 694.5,403.5C 690.893,404.489 687.226,404.823 683.5,404.5C 683.253,402.142 683.919,400.142 685.5,398.5 Z"/></g>
<g><path style="opacity:1" fill="#f5f5f5" d="M 438.5,411.5 C 437.472,414.886 435.472,417.552 432.5,419.5C 423.626,422.639 417.459,419.972 414,411.5C 411.863,403.959 414.03,398.126 420.5,394C 434.126,391.791 440.126,397.624 438.5,411.5 Z"/></g>
<g><path style="opacity:1" fill="#072134" d="M 423.5,398.5 C 431.421,398.635 434.255,402.635 432,410.5C 428,417.167 424,417.167 420,410.5C 418.746,405.695 419.913,401.695 423.5,398.5 Z"/></g>
<g><path style="opacity:1" fill="#f1f3f3" d="M 450.5,419.5 C 448.5,419.5 446.5,419.5 444.5,419.5C 444.5,410.833 444.5,402.167 444.5,393.5C 446.167,393.5 447.833,393.5 449.5,393.5C 449.351,394.552 449.517,395.552 450,396.5C 452.613,393.481 455.779,392.814 459.5,394.5C 458.691,396.071 458.357,397.738 458.5,399.5C 455.635,399.055 453.135,399.722 451,401.5C 450.501,407.491 450.334,413.491 450.5,419.5 Z"/></g>
<g><path style="opacity:1" fill="#0b2236" d="M 316.5,404.5 C 319.889,406.05 322.556,408.55 324.5,412C 319.499,417.14 315.499,416.64 312.5,410.5C 313.432,408.235 314.765,406.235 316.5,404.5 Z"/></g>
<g><path style="opacity:1" fill="#f7f8f8" d="M 594.5,393.5 C 597.091,394.254 598.924,395.921 600,398.5C 600.5,405.492 600.666,412.492 600.5,419.5C 598.5,419.5 596.5,419.5 594.5,419.5C 594.666,413.491 594.499,407.491 594,401.5C 590.592,397.517 587.592,397.85 585,402.5C 584.501,408.157 584.334,413.824 584.5,419.5C 582.5,419.5 580.5,419.5 578.5,419.5C 578.5,410.833 578.5,402.167 578.5,393.5C 580.5,393.5 582.5,393.5 584.5,393.5C 584.443,397.133 585.443,397.3 587.5,394C 589.81,393.503 592.143,393.337 594.5,393.5 Z"/></g>
<g><path style="opacity:1" fill="#f2f3f4" d="M 498.5,400.5 C 498.5,406.833 498.5,413.167 498.5,419.5C 496.5,419.5 494.5,419.5 492.5,419.5C 492.666,413.158 492.5,406.825 492,400.5C 488.354,397.659 485.354,398.326 483,402.5C 482.501,408.157 482.334,413.824 482.5,419.5C 480.5,419.5 478.5,419.5 476.5,419.5C 476.5,410.833 476.5,402.167 476.5,393.5C 478.5,393.5 480.5,393.5 482.5,393.5C 482.351,394.552 482.517,395.552 483,396.5C 483.903,395.299 485.069,394.465 486.5,394C 492.994,391.787 496.994,393.954 498.5,400.5 Z"/></g>
<g><path style="opacity:1" fill="#f2f2f4" d="M 378.5,418.5 C 370.479,421.926 363.146,420.926 356.5,415.5C 354.074,410.166 355.741,407.833 361.5,408.5C 361.965,412.629 364.299,414.629 368.5,414.5C 374.674,414.541 376.34,412.041 373.5,407C 369.91,405.47 366.243,404.136 362.5,403C 356.891,399.723 355.058,394.89 357,388.5C 364.734,380.611 372.401,380.611 380,388.5C 382.137,392.408 380.804,394.408 376,394.5C 374.305,389.401 370.805,387.568 365.5,389C 362.833,391.667 362.833,394.333 365.5,397C 368.44,398.152 371.44,399.152 374.5,400C 383.5,404.501 384.834,410.668 378.5,418.5 Z"/></g>
<g><path style="opacity:1" fill="#f3f4f5" d="M 622.5,430.5 C 619.5,430.5 616.5,430.5 613.5,430.5C 611.321,430.16 609.488,429.16 608,427.5C 605.59,424.582 606.09,422.582 609.5,421.5C 611.452,422.208 613.119,423.375 614.5,425C 621.667,426.5 624.5,423.667 623,416.5C 615.442,421.588 609.775,419.922 606,411.5C 604.549,405.361 605.716,399.861 609.5,395C 614.206,391.516 618.706,391.683 623,395.5C 624.754,393.75 626.921,393.083 629.5,393.5C 629.666,403.506 629.5,413.506 629,423.5C 628.011,426.987 625.845,429.32 622.5,430.5 Z"/></g>
<g><path style="opacity:1" fill="#072034" d="M 615.5,398.5 C 622.726,399.252 625.226,403.252 623,410.5C 622.626,411.416 622.126,412.25 621.5,413C 613.164,414.327 609.997,410.827 612,402.5C 612.69,400.65 613.856,399.316 615.5,398.5 Z"/></g>
<g><path style="opacity:0.737" fill="#738592" d="M 85.5,447.5 C 85.1532,452.68 84.4865,457.68 83.5,462.5C 83.3343,458.154 83.501,453.821 84,449.5C 84.2784,448.584 84.7784,447.918 85.5,447.5 Z"/></g>
<g><path style="opacity:1" fill="#fd9623" d="M 324.5,589.5 C 323.399,590.598 322.066,590.765 320.5,590C 313.952,582.956 307.619,575.79 301.5,568.5C 267.539,618.49 220.539,647.657 160.5,656C 159.167,654.667 159.167,653.333 160.5,652C 203.661,637.811 237.828,611.978 263,574.5C 265.372,571.09 267.205,567.423 268.5,563.5C 270.515,561.324 272.182,558.824 273.5,556C 263.839,555.5 254.172,555.334 244.5,555.5C 244.167,554.833 243.833,554.167 243.5,553.5C 243.34,551.801 243.506,550.134 244,548.5C 269.86,522.64 295.694,496.806 321.5,471C 322.833,470.333 324.167,470.333 325.5,471C 326.663,509.429 326.83,547.929 326,586.5C 324.961,587.244 324.461,588.244 324.5,589.5 Z"/></g>
<g><path style="opacity:1" fill="#db402a" d="M 435.5,481.5 C 452.772,478.87 467.605,483.537 480,495.5C 484.436,507.113 484.436,518.78 480,530.5C 479.667,530.833 479.333,531.167 479,531.5C 464.013,522.363 447.846,519.529 430.5,523C 423.692,525.242 417.025,527.742 410.5,530.5C 407.436,520.273 406.936,509.939 409,499.5C 410.396,495.208 412.896,491.708 416.5,489C 422.509,485.316 428.842,482.816 435.5,481.5 Z"/></g>
<g><path style="opacity:1" fill="#051d3c" d="M 315.5,474.5 C 292.167,498.5 268.5,522.167 244.5,545.5C 244.062,545.565 243.728,545.399 243.5,545C 249.034,540.483 253.368,535.15 256.5,529C 252.666,526.734 252.999,526.067 257.5,527C 255.164,524.952 255.164,523.118 257.5,521.5C 259.001,522.752 260.668,523.752 262.5,524.5C 267.639,520.861 272.306,516.694 276.5,512C 275.551,511.383 274.718,511.549 274,512.5C 273.333,511.5 273.333,510.5 274,509.5C 277.562,506.966 281.395,504.799 285.5,503C 288.667,499.833 291.833,496.667 295,493.5C 295.646,489.311 293.813,487.145 289.5,487C 292.923,487.145 294.923,485.645 295.5,482.5C 297.661,482.509 298.994,483.176 299.5,484.5C 301.105,483.57 302.605,483.57 304,484.5C 307.429,480.561 311.263,477.228 315.5,474.5 Z"/></g>
<g><path style="opacity:0.733" fill="#7b8088" d="M 81.5,485.5 C 80.5613,501.472 80.2279,517.472 80.5,533.5C 79.3389,518.672 79.1723,503.672 80,488.5C 80.2321,487.263 80.7321,486.263 81.5,485.5 Z"/></g>
<g><path style="opacity:1" fill="#02093c" d="M 327.5,587.5 C 327.667,548.499 327.5,509.499 327,470.5C 325.915,469.707 324.748,469.04 323.5,468.5C 320.532,470.14 317.865,472.14 315.5,474.5C 317.709,467.968 322.042,465.968 328.5,468.5C 328.832,508.337 328.499,548.004 327.5,587.5 Z"/></g>
<g><path style="opacity:1" fill="#fbb71e" d="M 327.5,587.5 C 326.5,588.167 325.5,588.833 324.5,589.5C 324.461,588.244 324.961,587.244 326,586.5C 326.83,547.929 326.663,509.429 325.5,471C 324.167,470.333 322.833,470.333 321.5,471C 295.694,496.806 269.86,522.64 244,548.5C 243.506,550.134 243.34,551.801 243.5,553.5C 242.12,553.038 241.453,552.038 241.5,550.5C 242.092,548.577 243.092,546.911 244.5,545.5C 268.5,522.167 292.167,498.5 315.5,474.5C 317.865,472.14 320.532,470.14 323.5,468.5C 324.748,469.04 325.915,469.707 327,470.5C 327.5,509.499 327.667,548.499 327.5,587.5 Z"/></g>
<g><path style="opacity:1" fill="#030940" d="M 244.5,555.5 C 254.172,555.334 263.839,555.5 273.5,556C 272.182,558.824 270.515,561.324 268.5,563.5C 269.086,561.16 270.086,558.993 271.5,557C 262.324,556.83 253.324,556.33 244.5,555.5 Z"/></g>
<g><path style="opacity:1" fill="#db402b" d="M 485.5,505.5 C 505.127,534.255 507.627,564.589 493,596.5C 487.189,608.628 480.189,619.961 472,630.5C 465,620.5 458,610.5 451,600.5C 450.125,599.127 449.625,597.627 449.5,596C 456.768,584.647 463.934,573.147 471,561.5C 477.968,549.235 482.968,536.235 486,522.5C 486.74,516.782 486.573,511.115 485.5,505.5 Z"/></g>
<g><path style="opacity:1" fill="#0ea9b4" d="M 559.5,769.5 C 558.957,769.56 558.624,769.893 558.5,770.5C 582.824,771.5 607.158,771.833 631.5,771.5C 635.473,774.54 635.473,777.706 631.5,781C 606.836,781.5 582.169,781.667 557.5,781.5C 557.666,787.842 557.5,794.175 557,800.5C 549.405,805.867 544.739,803.867 543,794.5C 540.855,776.08 544.855,759.08 555,743.5C 564.083,729.749 575.249,717.916 588.5,708C 578.333,699.167 568.833,689.667 560,679.5C 553.469,670.77 548.802,661.104 546,650.5C 544.048,637.974 546.382,626.307 553,615.5C 562.85,600.326 574.684,586.826 588.5,575C 578.667,566.5 569.5,557.333 561,547.5C 546.736,529.699 540.736,509.366 543,486.5C 545.437,478.274 550.104,476.607 557,481.5C 557.5,488.158 557.666,494.825 557.5,501.5C 582.169,501.333 606.836,501.5 631.5,502C 634.349,504.559 635.183,507.726 634,511.5C 633.25,512.126 632.416,512.626 631.5,513C 607.836,513.5 584.169,513.667 560.5,513.5C 561.589,518.35 563.255,523.017 565.5,527.5C 583.157,528.333 600.824,528.833 618.5,529C 622.487,532.713 622.487,536.38 618.5,540C 604.167,540.333 589.833,540.667 575.5,541C 582.716,549.884 590.883,557.717 600,564.5C 614.031,554.802 625.698,542.802 635,528.5C 642.682,515.275 645.516,501.109 643.5,486C 643.793,479.378 647.126,477.044 653.5,479C 655.617,480.731 657.117,482.898 658,485.5C 660.781,510.151 654.115,531.818 638,550.5C 629.593,559.41 620.76,567.743 611.5,575.5C 622.817,584.983 633.317,595.316 643,606.5C 658.545,627.447 659.545,649.114 646,671.5C 636.619,685.218 625.452,697.385 612.5,708C 628.814,720.482 641.981,735.649 652,753.5C 656.383,763.032 658.883,773.032 659.5,783.5C 659.405,789.406 658.239,795.073 656,800.5C 648.093,805.476 643.926,803.142 643.5,793.5C 645.855,780.391 643.688,768.057 637,756.5C 627.106,741.385 614.94,728.385 600.5,717.5C 590.866,725.466 581.866,734.133 573.5,743.5C 588.489,744.333 603.489,744.833 618.5,745C 622.5,748.333 622.5,751.667 618.5,755C 600.833,755.333 583.167,755.667 565.5,756C 562.81,760.212 560.81,764.712 559.5,769.5 Z"/></g>
<g><path style="opacity:1" fill="#50bab5" d="M 770.5,486.5 C 782.967,485.128 787.8,490.461 785,502.5C 779.897,509.256 778.064,516.923 779.5,525.5C 788.32,525.474 796.654,527.474 804.5,531.5C 810.157,526.051 812.49,519.551 811.5,512C 813.11,503.685 818.11,500.685 826.5,503C 833.757,508.888 834.09,515.055 827.5,521.5C 820.678,523.491 816.344,527.991 814.5,535C 821.071,540.566 827.404,546.566 833.5,553C 838.3,551.267 842.966,548.934 847.5,546C 849.227,535.981 854.893,532.314 864.5,535C 869.272,538.699 870.772,543.533 869,549.5C 864.808,554.292 859.641,555.792 853.5,554C 849.326,556.588 844.993,558.921 840.5,561C 839.978,561.561 839.645,562.228 839.5,563C 843.795,571.679 846.128,580.845 846.5,590.5C 851.805,591.442 857.139,591.609 862.5,591C 866.215,587.69 870.548,586.69 875.5,588C 879.386,589.937 881.053,593.103 880.5,597.5C 879.459,606.19 874.792,609.024 866.5,606C 864.651,604.907 862.984,603.574 861.5,602C 856.511,601.501 851.511,601.334 846.5,601.5C 845.523,612.098 842.523,622.098 837.5,631.5C 841.295,634.905 845.628,637.571 850.5,639.5C 861.477,637.646 865.977,642.312 864,653.5C 860.637,659.484 855.803,660.984 849.5,658C 846.655,654.639 844.321,650.972 842.5,647C 838.833,644.833 835.167,642.667 831.5,640.5C 826.606,645.564 821.273,650.064 815.5,654C 814.426,654.739 813.759,655.739 813.5,657C 816.002,663.674 820.668,668.007 827.5,670C 833.769,675.293 834.103,680.96 828.5,687C 815.939,690.934 810.605,686.434 812.5,673.5C 810.418,669.253 807.751,665.419 804.5,662C 796.98,663.702 789.313,665.035 781.5,666C 780.358,672.084 780.191,678.251 781,684.5C 788.087,690.558 788.253,696.725 781.5,703C 772.313,706.242 766.98,703.075 765.5,693.5C 765.84,689.973 767.34,686.973 770,684.5C 770.346,678.143 770.846,671.81 771.5,665.5C 764.063,665.646 756.896,664.313 750,661.5C 744.676,666.46 742.509,672.46 743.5,679.5C 742.483,687.852 737.816,691.019 729.5,689C 721.198,683.804 720.531,677.804 727.5,671C 729.659,670.088 731.825,669.255 734,668.5C 735.833,664.833 737.667,661.167 739.5,657.5C 732.562,652.231 726.229,646.231 720.5,639.5C 717.193,641.64 714.026,643.974 711,646.5C 709.687,655.57 704.52,659.403 695.5,658C 689.614,654.194 688.114,649.028 691,642.5C 695.152,638.113 700.319,636.279 706.5,637C 709.198,634.991 711.864,632.991 714.5,631C 709.874,621.663 706.874,611.83 705.5,601.5C 698.626,599.024 692.959,600.524 688.5,606C 677.333,608.167 672.833,603.667 675,592.5C 679.84,585.523 685.673,584.689 692.5,590C 697.118,590.994 701.785,591.494 706.5,591.5C 706.718,582.677 708.884,574.343 713,566.5C 713.667,565.167 713.667,563.833 713,562.5C 706.72,556.555 699.22,553.722 690.5,554C 684.952,547.708 685.285,541.708 691.5,536C 700.601,533.759 706.101,537.259 708,546.5C 711.357,550.427 715.524,552.594 720.5,553C 726.166,547.001 732.166,541.334 738.5,536C 737.055,531.667 735.222,527.501 733,523.5C 724.417,521.928 721.084,516.928 723,508.5C 728.277,501.399 734.277,500.732 741,506.5C 742.215,511.051 742.881,515.718 743,520.5C 744.02,524.402 745.52,528.068 747.5,531.5C 754.588,528.561 761.922,526.561 769.5,525.5C 769.666,519.158 769.5,512.825 769,506.5C 764.418,501.845 763.418,496.512 766,490.5C 767.667,489.267 769.167,487.933 770.5,486.5 Z"/></g>
<g><path style="opacity:1" fill="#057f7d" d="M 738.5,569.5 C 748.992,567.834 753.826,572.167 753,582.5C 750.081,588.025 745.581,589.858 739.5,588C 733.975,585.081 732.142,580.581 734,574.5C 735.707,572.963 737.207,571.296 738.5,569.5 Z"/></g>
<g><path style="opacity:1" fill="#06807d" d="M 779.5,550.5 C 794.661,550.84 799.161,557.84 793,571.5C 788.29,574.443 783.123,575.276 777.5,574C 771.442,569.943 769.609,564.443 772,557.5C 773.742,554.254 776.242,551.921 779.5,550.5 Z"/></g>
<g><path style="opacity:1" fill="#057e7c" d="M 815.5,576.5 C 824.53,576.358 828.363,580.692 827,589.5C 823.692,593.327 819.526,594.494 814.5,593C 808.953,587.032 809.287,581.532 815.5,576.5 Z"/></g>
<g><path style="opacity:0.749" fill="#71838f" d="M 80.5,534.5 C 81.2679,535.263 81.7679,536.263 82,537.5C 82.2102,550.281 83.2102,562.948 85,575.5C 87.4003,586.071 89.2336,596.738 90.5,607.5C 89.8525,605.502 89.0192,603.502 88,601.5C 84.3831,579.313 81.8831,556.98 80.5,534.5 Z"/></g>
<g><path style="opacity:1" fill="#05807d" d="M 790.5,603.5 C 807.039,604.583 812.539,612.916 807,628.5C 801.681,634.167 795.181,636.001 787.5,634C 778.227,628.31 776.06,620.477 781,610.5C 783.529,607.115 786.696,604.782 790.5,603.5 Z"/></g>
<g><path style="opacity:1" fill="#db402a" d="M 404.5,502.5 C 403.635,518.749 406.802,534.415 414,549.5C 429.25,577.68 446.25,604.68 465,630.5C 485.333,657.5 505.667,684.5 526,711.5C 526.667,712.833 526.667,714.167 526,715.5C 518.906,729.357 511.573,743.024 504,756.5C 473.247,711.326 442.247,666.326 411,621.5C 400.936,606.038 393.602,589.371 389,571.5C 386.452,546.738 391.618,523.738 404.5,502.5 Z"/></g>
<g><path style="opacity:1" fill="#057f7d" d="M 744.5,612.5 C 753.492,611.661 757.659,615.661 757,624.5C 754.367,629.732 750.201,631.565 744.5,630C 739.845,627.103 738.345,622.937 740,617.5C 741.025,615.313 742.525,613.646 744.5,612.5 Z"/></g>
<g><path style="opacity:1" fill="#022438" d="M 598.5,585.5 C 607.522,591.342 615.855,598.175 623.5,606C 610.5,606.333 597.5,606.667 584.5,607C 581.833,610.333 581.833,613.667 584.5,617C 600.833,617.333 617.167,617.667 633.5,618C 636.777,623.06 639.111,628.56 640.5,634.5C 617.174,635.333 593.84,635.833 570.5,636C 567.833,639 567.833,642 570.5,645C 593.84,645.167 617.174,645.667 640.5,646.5C 639.286,651.808 637.286,656.808 634.5,661.5C 617.51,662.333 600.51,662.833 583.5,663C 579.5,666.333 579.5,669.667 583.5,673C 597.5,673.333 611.5,673.667 625.5,674C 622.536,677.966 619.203,681.633 615.5,685C 610.646,689.355 605.646,693.522 600.5,697.5C 584.917,685.757 572.417,671.424 563,654.5C 560.212,646.923 559.878,639.257 562,631.5C 567.256,619.99 574.256,609.656 583,600.5C 588.67,595.996 593.837,590.996 598.5,585.5 Z"/></g>
<g><path style="opacity:1" fill="#01143e" d="M 324.5,608.5 C 324.88,606.302 324.213,604.635 322.5,603.5C 322.027,602.094 321.027,601.427 319.5,601.5C 314.167,601.5 308.833,601.5 303.5,601.5C 305.743,600.188 308.41,599.522 311.5,599.5C 316.358,599.079 320.858,600.079 325,602.5C 326.119,620.355 326.952,638.188 327.5,656C 326.7,660.08 326.2,664.247 326,668.5C 325.832,648.329 325.332,628.329 324.5,608.5 Z"/></g>
<g><path style="opacity:1" fill="#000740" d="M 293.5,605.5 C 293.5,649.833 293.5,694.167 293.5,738.5C 292.829,710.764 292.163,682.931 291.5,655C 292.16,638.402 292.827,621.902 293.5,605.5 Z"/></g>
<g><path style="opacity:1" fill="#db402a" d="M 416.5,641.5 C 425.133,651.993 433.299,662.993 441,674.5C 441.667,675.833 441.667,677.167 441,678.5C 422.667,704.833 404.333,731.167 386,757.5C 377.659,743.487 369.825,729.154 362.5,714.5C 380.525,690.148 398.525,665.815 416.5,641.5 Z"/></g>
<g><path style="opacity:1" fill="#fd9523" d="M 265.5,737.5 C 264.89,738.391 264.557,739.391 264.5,740.5C 263.833,740.5 263.167,740.5 262.5,740.5C 254.493,740.666 246.493,740.5 238.5,740C 237.667,739.167 236.833,738.333 236,737.5C 235.016,707.747 235.35,678.081 237,648.5C 237.5,648 238,647.5 238.5,647C 246.167,646.333 253.833,646.333 261.5,647C 262.333,647.833 263.167,648.667 264,649.5C 264.168,679.003 264.668,708.336 265.5,737.5 Z"/></g>
<g><path style="opacity:1" fill="#fd9523" d="M 179.5,741.5 C 177.5,740.833 176.167,739.5 175.5,737.5C 176.332,718.671 176.832,699.671 177,680.5C 177.5,679.333 178.333,678.5 179.5,678C 187.167,677.333 194.833,677.333 202.5,678C 203,678.5 203.5,679 204,679.5C 204.667,699.167 204.667,718.833 204,738.5C 203.5,739 203,739.5 202.5,740C 194.656,740.171 186.989,740.671 179.5,741.5 Z"/></g>
<g><path style="opacity:1" fill="#111b3c" d="M 264.5,740.5 C 264.557,739.391 264.89,738.391 265.5,737.5C 265.667,707.831 265.5,678.165 265,648.5C 264.167,647.667 263.333,646.833 262.5,646C 258.179,645.501 253.846,645.334 249.5,645.5C 254.7,643.007 259.7,643.007 264.5,645.5C 265.531,646.7 266.365,648.034 267,649.5C 267.667,678.833 267.667,708.167 267,737.5C 266.623,738.942 265.79,739.942 264.5,740.5 Z"/></g>
<g><path style="opacity:1" fill="#fe9623" d="M 319.5,601.5 C 321.027,601.427 322.027,602.094 322.5,603.5C 323.656,648.125 323.823,692.792 323,737.5C 322.5,738.667 321.667,739.5 320.5,740C 312.833,740.667 305.167,740.667 297.5,740C 296.667,739.167 295.833,738.333 295,737.5C 294.333,694.167 294.333,650.833 295,607.5C 295.273,605.671 296.107,604.171 297.5,603C 305.011,602.829 312.345,602.329 319.5,601.5 Z"/></g>
<g><path style="opacity:1" fill="#02083d" d="M 248.5,645.5 C 244.818,645.335 241.152,645.501 237.5,646C 236.667,646.833 235.833,647.667 235,648.5C 234.333,678.5 234.333,708.5 235,738.5C 236.129,740.141 237.629,741.141 239.5,741.5C 237.243,742.803 235.41,742.136 234,739.5C 233.829,708.928 233.329,678.428 232.5,648C 237.438,644.424 242.772,643.591 248.5,645.5 Z"/></g>
<g><path style="opacity:1" fill="#fcbb21" d="M 248.5,645.5 C 248.833,645.5 249.167,645.5 249.5,645.5C 253.846,645.334 258.179,645.501 262.5,646C 263.333,646.833 264.167,647.667 265,648.5C 265.5,678.165 265.667,707.831 265.5,737.5C 264.668,708.336 264.168,679.003 264,649.5C 263.167,648.667 262.333,647.833 261.5,647C 253.833,646.333 246.167,646.333 238.5,647C 238,647.5 237.5,648 237,648.5C 235.35,678.081 235.016,707.747 236,737.5C 236.833,738.333 237.667,739.167 238.5,740C 246.493,740.5 254.493,740.666 262.5,740.5C 255.018,741.492 247.352,741.825 239.5,741.5C 237.629,741.141 236.129,740.141 235,738.5C 234.333,708.5 234.333,678.5 235,648.5C 235.833,647.667 236.667,646.833 237.5,646C 241.152,645.501 244.818,645.335 248.5,645.5 Z"/></g>
<g><path style="opacity:1" fill="#fdbc1d" d="M 303.5,601.5 C 308.833,601.5 314.167,601.5 319.5,601.5C 312.345,602.329 305.011,602.829 297.5,603C 296.107,604.171 295.273,605.671 295,607.5C 294.333,650.833 294.333,694.167 295,737.5C 295.833,738.333 296.667,739.167 297.5,740C 305.167,740.667 312.833,740.667 320.5,740C 321.667,739.5 322.5,738.667 323,737.5C 323.823,692.792 323.656,648.125 322.5,603.5C 324.213,604.635 324.88,606.302 324.5,608.5C 324.5,650.833 324.5,693.167 324.5,735.5C 324.371,737.216 324.038,738.883 323.5,740.5C 314.548,741.611 305.548,741.777 296.5,741C 295.627,739.955 294.627,739.122 293.5,738.5C 293.5,694.167 293.5,649.833 293.5,605.5C 295.737,601.907 299.07,600.574 303.5,601.5 Z"/></g>
<g><path style="opacity:1" fill="#030e3f" d="M 175.5,736.5 C 175.5,736.833 175.5,737.167 175.5,737.5C 176.167,739.5 177.5,740.833 179.5,741.5C 180.263,742.268 181.263,742.768 182.5,743C 178.006,743.832 175.172,741.998 174,737.5C 173.333,718.833 173.333,700.167 174,681.5C 174.168,700.005 174.668,718.338 175.5,736.5 Z"/></g>
<g><path style="opacity:1" fill="#00143c" d="M 323.5,740.5 C 324.038,738.883 324.371,737.216 324.5,735.5C 325.332,713.67 325.832,691.67 326,669.5C 326.624,692.397 327.124,715.397 327.5,738.5C 326.164,738.345 324.831,739.012 323.5,740.5 Z"/></g>
<g><path style="opacity:1" fill="#fbb120" d="M 179.5,741.5 C 186.989,740.671 194.656,740.171 202.5,740C 203,739.5 203.5,739 204,738.5C 204.667,718.833 204.667,699.167 204,679.5C 203.5,679 203,678.5 202.5,678C 194.833,677.333 187.167,677.333 179.5,678C 178.333,678.5 177.5,679.333 177,680.5C 176.832,699.671 176.332,718.671 175.5,737.5C 175.5,737.167 175.5,736.833 175.5,736.5C 175.179,717.12 175.513,697.787 176.5,678.5C 177.025,677.808 177.692,677.308 178.5,677C 186.833,676.333 195.167,676.333 203.5,677C 204.333,677.833 205.167,678.667 206,679.5C 206.667,698.833 206.667,718.167 206,737.5C 205.535,738.931 204.701,740.097 203.5,741C 195.507,741.5 187.507,741.666 179.5,741.5 Z"/></g>
<g><path style="opacity:1" fill="#078090" d="M 559.5,769.5 C 583.5,770.167 607.5,770.833 631.5,771.5C 607.158,771.833 582.824,771.5 558.5,770.5C 558.624,769.893 558.957,769.56 559.5,769.5 Z"/></g>
</svg>
